<?xml version="1.0" encoding="UTF-8" standalone="no"?>
<svg
   version="1.1"
   id="Layer_1"
   x="0px"
   y="0px"
   width="379.51212"
   viewBox="0 0 379.51212 379.51212"
   enable-background="new 0 0 1486 264"
   xml:space="preserve"
   sodipodi:docname="flownexus_favicon.svg"
   inkscape:version="1.2.2 (b0a8486541, 2022-12-01)"
   height="379.51212"
   xmlns:inkscape="http://www.inkscape.org/namespaces/inkscape"
   xmlns:sodipodi="http://sodipodi.sourceforge.net/DTD/sodipodi-0.dtd"
   xmlns="http://www.w3.org/2000/svg"
   xmlns:svg="http://www.w3.org/2000/svg"><defs
   id="defs16" /><sodipodi:namedview
   id="namedview16"
   pagecolor="#ffffff"
   bordercolor="#000000"
   borderopacity="0.25"
   inkscape:showpageshadow="2"
   inkscape:pageopacity="0.0"
   inkscape:pagecheckerboard="0"
   inkscape:deskcolor="#d1d1d1"
   inkscape:lockguides="false"
   inkscape:zoom="0.78609717"
   inkscape:cx="319.935"
   inkscape:cy="905.74044"
   inkscape:window-width="1920"
   inkscape:window-height="2076"
   inkscape:window-x="20"
   inkscape:window-y="20"
   inkscape:window-maximized="0"
   inkscape:current-layer="Layer_1"
   showgrid="false" />

<circle
   style="fill:#ffffff;fill-opacity:1;stroke:#ffffff;stroke-width:1.89;stroke-linecap:round;stroke-opacity:1"
   id="path951"
   cx="189.75606"
   cy="189.75606"
   r="188.81105" /><path
   fill="#050505"
   opacity="1"
   stroke="none"
   d="m 75.546787,118.96307 c 9.909756,-7.02817 20.587422,-10.47455 32.343243,-10.47787 54.50571,-0.0154 109.01245,-0.20643 163.51674,0.0729 26.33415,0.135 43.99748,14.75928 54.58338,37.38101 15.6792,33.50604 14.23218,66.84866 -6.3294,98.14156 -11.80662,17.96864 -28.99846,26.97691 -50.94868,26.88706 -51.42666,-0.21049 -102.8615,-0.56584 -154.27962,0.1286 C 85.434221,271.488 65.242964,258.56148 53.424504,233.25835 37.772326,199.7473 39.408758,166.48796 59.923754,135.15181 63.892086,129.09028 70.071735,124.47643 75.546787,118.96302 M 291.14306,249.32885 c 2.06765,-2.02184 4.34405,-3.87192 6.17058,-6.09214 17.93889,-21.80595 21.08921,-46.98217 16.08657,-73.71721 -2.39447,-12.79668 -7.77152,-24.4683 -16.7006,-34.17743 -7.94291,-8.6369 -17.27274,-14.39717 -29.66608,-12.51012 -9.28812,1.41427 -16.19013,6.91383 -22.06971,13.77806 -10.35461,12.0887 -15.53892,26.48821 -17.15806,42.04727 -2.44579,23.50255 1.76895,45.53672 17.31177,64.18274 12.54284,15.04708 29.48708,19.12899 46.02553,6.48883 M 83.737589,134.22029 c -24.449765,27.83665 -26.751697,75.03431 -4.911596,104.91662 6.788358,9.28805 15.095183,17.08088 27.372417,17.51608 14.64201,0.51904 29.31532,0.16201 43.975,0.13909 0.39219,-6e-4 0.78357,-0.52368 1.21471,-0.83121 -18.50868,-18.38502 -26.19929,-40.93622 -26.2064,-66.37099 -0.007,-25.50801 7.88669,-48.10187 27.03587,-67.17271 -13.8829,0 -26.52787,0.37129 -39.14037,-0.1097 -11.45798,-0.43696 -20.889181,3.29144 -29.339631,11.91282 m 65.088261,30.49335 c -0.51771,2.29132 -1.14315,4.56433 -1.53657,6.87679 -4.16532,24.48197 -1.17904,47.61123 13.71425,68.18757 8.19033,11.31566 18.87166,18.05671 33.62414,17.2254 9.55767,-0.53859 19.17033,-0.10129 28.75834,-0.10129 3.14055,2e-5 6.28113,0 10.25409,0 -34.04969,-31.92656 -37.11152,-98.53672 -0.57094,-134.15839 -0.96537,-0.13475 -1.60253,-0.30081 -2.23982,-0.30129 -13.74859,-0.0108 -27.53133,-0.56408 -41.22979,0.2671 -5.82474,0.35341 -12.15942,2.56081 -17.06776,5.75901 -12.70969,8.28144 -19.10488,21.29432 -23.70594,36.24506 z"
   id="path2"
   style="display:inline;fill:#000000;fill-opacity:1;stroke:#000000;stroke-width:1.08671;stroke-opacity:1" />














</svg>
